<mxfile host="Electron" agent="Mozilla/5.0 (Windows NT 10.0; Win64; x64) AppleWebKit/537.36 (KHTML, like Gecko) draw.io/26.0.3 Chrome/130.0.6723.137 Electron/33.2.1 Safari/537.36" version="26.0.3">
  <diagram name="Page-1" id="TO-TxmpL4Npi_PJotcGe">
    <mxGraphModel dx="1167" dy="690" grid="1" gridSize="1" guides="1" tooltips="1" connect="1" arrows="1" fold="1" page="1" pageScale="1" pageWidth="1500" pageHeight="1600" math="0" shadow="0">
      <root>
        <mxCell id="0" />
        <mxCell id="1" parent="0" />
        <mxCell id="Mu3S5q0IJZtE3U1gxK8Q-10" style="edgeStyle=orthogonalEdgeStyle;rounded=0;orthogonalLoop=1;jettySize=auto;html=1;entryX=0;entryY=0.5;entryDx=0;entryDy=0;" edge="1" parent="1" source="Mu3S5q0IJZtE3U1gxK8Q-1" target="Mu3S5q0IJZtE3U1gxK8Q-2">
          <mxGeometry relative="1" as="geometry" />
        </mxCell>
        <mxCell id="Mu3S5q0IJZtE3U1gxK8Q-1" value="IV0" style="ellipse;whiteSpace=wrap;html=1;aspect=fixed;" vertex="1" parent="1">
          <mxGeometry x="645" y="120" width="30" height="30" as="geometry" />
        </mxCell>
        <mxCell id="Mu3S5q0IJZtE3U1gxK8Q-11" style="edgeStyle=orthogonalEdgeStyle;rounded=0;orthogonalLoop=1;jettySize=auto;html=1;entryX=0;entryY=0.5;entryDx=0;entryDy=0;" edge="1" parent="1" source="Mu3S5q0IJZtE3U1gxK8Q-2" target="Mu3S5q0IJZtE3U1gxK8Q-3">
          <mxGeometry relative="1" as="geometry" />
        </mxCell>
        <mxCell id="Mu3S5q0IJZtE3U1gxK8Q-2" value="IV1" style="ellipse;whiteSpace=wrap;html=1;aspect=fixed;" vertex="1" parent="1">
          <mxGeometry x="705" y="120" width="30" height="30" as="geometry" />
        </mxCell>
        <mxCell id="Mu3S5q0IJZtE3U1gxK8Q-12" style="edgeStyle=orthogonalEdgeStyle;rounded=0;orthogonalLoop=1;jettySize=auto;html=1;entryX=0;entryY=0.5;entryDx=0;entryDy=0;" edge="1" parent="1" source="Mu3S5q0IJZtE3U1gxK8Q-3" target="Mu3S5q0IJZtE3U1gxK8Q-4">
          <mxGeometry relative="1" as="geometry" />
        </mxCell>
        <mxCell id="Mu3S5q0IJZtE3U1gxK8Q-3" value="IV2" style="ellipse;whiteSpace=wrap;html=1;aspect=fixed;" vertex="1" parent="1">
          <mxGeometry x="765" y="120" width="30" height="30" as="geometry" />
        </mxCell>
        <mxCell id="Mu3S5q0IJZtE3U1gxK8Q-30" style="edgeStyle=orthogonalEdgeStyle;rounded=0;orthogonalLoop=1;jettySize=auto;html=1;entryX=0;entryY=0.5;entryDx=0;entryDy=0;" edge="1" parent="1" source="Mu3S5q0IJZtE3U1gxK8Q-4" target="Mu3S5q0IJZtE3U1gxK8Q-29">
          <mxGeometry relative="1" as="geometry" />
        </mxCell>
        <mxCell id="Mu3S5q0IJZtE3U1gxK8Q-4" value="IV3" style="ellipse;whiteSpace=wrap;html=1;aspect=fixed;" vertex="1" parent="1">
          <mxGeometry x="825" y="120" width="30" height="30" as="geometry" />
        </mxCell>
        <mxCell id="Mu3S5q0IJZtE3U1gxK8Q-5" value="OV0" style="ellipse;whiteSpace=wrap;html=1;aspect=fixed;" vertex="1" parent="1">
          <mxGeometry x="530" y="120" width="30" height="30" as="geometry" />
        </mxCell>
        <mxCell id="Mu3S5q0IJZtE3U1gxK8Q-15" style="edgeStyle=orthogonalEdgeStyle;rounded=0;orthogonalLoop=1;jettySize=auto;html=1;" edge="1" parent="1" source="Mu3S5q0IJZtE3U1gxK8Q-6">
          <mxGeometry relative="1" as="geometry">
            <mxPoint x="410" y="135" as="targetPoint" />
          </mxGeometry>
        </mxCell>
        <mxCell id="Mu3S5q0IJZtE3U1gxK8Q-6" value="OV1" style="ellipse;whiteSpace=wrap;html=1;aspect=fixed;" vertex="1" parent="1">
          <mxGeometry x="350" y="120" width="30" height="30" as="geometry" />
        </mxCell>
        <mxCell id="Mu3S5q0IJZtE3U1gxK8Q-14" style="edgeStyle=orthogonalEdgeStyle;rounded=0;orthogonalLoop=1;jettySize=auto;html=1;" edge="1" parent="1" source="Mu3S5q0IJZtE3U1gxK8Q-7">
          <mxGeometry relative="1" as="geometry">
            <mxPoint x="500" y="135" as="targetPoint" />
          </mxGeometry>
        </mxCell>
        <mxCell id="Mu3S5q0IJZtE3U1gxK8Q-7" value="OV2" style="ellipse;whiteSpace=wrap;html=1;aspect=fixed;" vertex="1" parent="1">
          <mxGeometry x="440" y="120" width="30" height="30" as="geometry" />
        </mxCell>
        <mxCell id="Mu3S5q0IJZtE3U1gxK8Q-9" style="edgeStyle=orthogonalEdgeStyle;rounded=0;orthogonalLoop=1;jettySize=auto;html=1;entryX=0;entryY=0.5;entryDx=0;entryDy=0;" edge="1" parent="1" target="Mu3S5q0IJZtE3U1gxK8Q-1">
          <mxGeometry relative="1" as="geometry">
            <mxPoint x="560" y="135" as="sourcePoint" />
          </mxGeometry>
        </mxCell>
        <mxCell id="Mu3S5q0IJZtE3U1gxK8Q-16" style="edgeStyle=orthogonalEdgeStyle;rounded=0;orthogonalLoop=1;jettySize=auto;html=1;" edge="1" parent="1" source="Mu3S5q0IJZtE3U1gxK8Q-13">
          <mxGeometry relative="1" as="geometry">
            <mxPoint x="330" y="135" as="targetPoint" />
          </mxGeometry>
        </mxCell>
        <mxCell id="Mu3S5q0IJZtE3U1gxK8Q-13" value="OV3" style="ellipse;whiteSpace=wrap;html=1;aspect=fixed;" vertex="1" parent="1">
          <mxGeometry x="270" y="120" width="30" height="30" as="geometry" />
        </mxCell>
        <mxCell id="Mu3S5q0IJZtE3U1gxK8Q-19" value="" style="endArrow=none;dashed=1;html=1;dashPattern=1 3;strokeWidth=2;rounded=0;" edge="1" parent="1">
          <mxGeometry width="50" height="50" relative="1" as="geometry">
            <mxPoint x="635" y="100" as="sourcePoint" />
            <mxPoint x="870" y="100" as="targetPoint" />
          </mxGeometry>
        </mxCell>
        <mxCell id="Mu3S5q0IJZtE3U1gxK8Q-20" value="" style="endArrow=none;dashed=1;html=1;dashPattern=1 3;strokeWidth=2;rounded=0;" edge="1" parent="1">
          <mxGeometry width="50" height="50" relative="1" as="geometry">
            <mxPoint x="640" y="170" as="sourcePoint" />
            <mxPoint x="870" y="170" as="targetPoint" />
          </mxGeometry>
        </mxCell>
        <mxCell id="Mu3S5q0IJZtE3U1gxK8Q-21" value="" style="endArrow=none;dashed=1;html=1;dashPattern=1 3;strokeWidth=2;rounded=0;" edge="1" parent="1">
          <mxGeometry width="50" height="50" relative="1" as="geometry">
            <mxPoint x="630" y="170" as="sourcePoint" />
            <mxPoint x="630" y="100" as="targetPoint" />
          </mxGeometry>
        </mxCell>
        <mxCell id="Mu3S5q0IJZtE3U1gxK8Q-22" value="" style="endArrow=none;dashed=1;html=1;dashPattern=1 3;strokeWidth=2;rounded=0;" edge="1" parent="1">
          <mxGeometry width="50" height="50" relative="1" as="geometry">
            <mxPoint x="870" y="170" as="sourcePoint" />
            <mxPoint x="870" y="100" as="targetPoint" />
          </mxGeometry>
        </mxCell>
        <mxCell id="Mu3S5q0IJZtE3U1gxK8Q-23" style="edgeStyle=orthogonalEdgeStyle;rounded=0;orthogonalLoop=1;jettySize=auto;html=1;" edge="1" source="Mu3S5q0IJZtE3U1gxK8Q-24" parent="1">
          <mxGeometry relative="1" as="geometry">
            <mxPoint x="1040" y="135" as="targetPoint" />
          </mxGeometry>
        </mxCell>
        <mxCell id="Mu3S5q0IJZtE3U1gxK8Q-24" value="OV1" style="ellipse;whiteSpace=wrap;html=1;aspect=fixed;" vertex="1" parent="1">
          <mxGeometry x="980" y="120" width="30" height="30" as="geometry" />
        </mxCell>
        <mxCell id="Mu3S5q0IJZtE3U1gxK8Q-25" style="edgeStyle=orthogonalEdgeStyle;rounded=0;orthogonalLoop=1;jettySize=auto;html=1;" edge="1" source="Mu3S5q0IJZtE3U1gxK8Q-26" parent="1">
          <mxGeometry relative="1" as="geometry">
            <mxPoint x="1120" y="135" as="targetPoint" />
          </mxGeometry>
        </mxCell>
        <mxCell id="Mu3S5q0IJZtE3U1gxK8Q-26" value="OV2" style="ellipse;whiteSpace=wrap;html=1;aspect=fixed;" vertex="1" parent="1">
          <mxGeometry x="1060" y="120" width="30" height="30" as="geometry" />
        </mxCell>
        <mxCell id="Mu3S5q0IJZtE3U1gxK8Q-27" style="edgeStyle=orthogonalEdgeStyle;rounded=0;orthogonalLoop=1;jettySize=auto;html=1;" edge="1" source="Mu3S5q0IJZtE3U1gxK8Q-28" parent="1">
          <mxGeometry relative="1" as="geometry">
            <mxPoint x="1200" y="135" as="targetPoint" />
          </mxGeometry>
        </mxCell>
        <mxCell id="Mu3S5q0IJZtE3U1gxK8Q-28" value="OV3" style="ellipse;whiteSpace=wrap;html=1;aspect=fixed;" vertex="1" parent="1">
          <mxGeometry x="1140" y="120" width="30" height="30" as="geometry" />
        </mxCell>
        <mxCell id="Mu3S5q0IJZtE3U1gxK8Q-29" value="OV0" style="ellipse;whiteSpace=wrap;html=1;aspect=fixed;" vertex="1" parent="1">
          <mxGeometry x="920" y="120" width="30" height="30" as="geometry" />
        </mxCell>
        <mxCell id="Mu3S5q0IJZtE3U1gxK8Q-31" style="edgeStyle=orthogonalEdgeStyle;rounded=0;orthogonalLoop=1;jettySize=auto;html=1;entryX=0;entryY=0.5;entryDx=0;entryDy=0;" edge="1" source="Mu3S5q0IJZtE3U1gxK8Q-32" target="Mu3S5q0IJZtE3U1gxK8Q-34" parent="1">
          <mxGeometry relative="1" as="geometry" />
        </mxCell>
        <mxCell id="Mu3S5q0IJZtE3U1gxK8Q-32" value="OV0" style="ellipse;whiteSpace=wrap;html=1;aspect=fixed;" vertex="1" parent="1">
          <mxGeometry x="644" y="260" width="30" height="30" as="geometry" />
        </mxCell>
        <mxCell id="Mu3S5q0IJZtE3U1gxK8Q-33" style="edgeStyle=orthogonalEdgeStyle;rounded=0;orthogonalLoop=1;jettySize=auto;html=1;entryX=0;entryY=0.5;entryDx=0;entryDy=0;" edge="1" source="Mu3S5q0IJZtE3U1gxK8Q-34" target="Mu3S5q0IJZtE3U1gxK8Q-36" parent="1">
          <mxGeometry relative="1" as="geometry" />
        </mxCell>
        <mxCell id="Mu3S5q0IJZtE3U1gxK8Q-34" value="OV1" style="ellipse;whiteSpace=wrap;html=1;aspect=fixed;" vertex="1" parent="1">
          <mxGeometry x="704" y="260" width="30" height="30" as="geometry" />
        </mxCell>
        <mxCell id="Mu3S5q0IJZtE3U1gxK8Q-35" style="edgeStyle=orthogonalEdgeStyle;rounded=0;orthogonalLoop=1;jettySize=auto;html=1;entryX=0;entryY=0.5;entryDx=0;entryDy=0;" edge="1" source="Mu3S5q0IJZtE3U1gxK8Q-36" target="Mu3S5q0IJZtE3U1gxK8Q-37" parent="1">
          <mxGeometry relative="1" as="geometry" />
        </mxCell>
        <mxCell id="Mu3S5q0IJZtE3U1gxK8Q-36" value="OV2" style="ellipse;whiteSpace=wrap;html=1;aspect=fixed;" vertex="1" parent="1">
          <mxGeometry x="764" y="260" width="30" height="30" as="geometry" />
        </mxCell>
        <mxCell id="Mu3S5q0IJZtE3U1gxK8Q-37" value="OV3" style="ellipse;whiteSpace=wrap;html=1;aspect=fixed;" vertex="1" parent="1">
          <mxGeometry x="824" y="260" width="30" height="30" as="geometry" />
        </mxCell>
        <mxCell id="Mu3S5q0IJZtE3U1gxK8Q-38" value="" style="endArrow=none;dashed=1;html=1;dashPattern=1 3;strokeWidth=2;rounded=0;" edge="1" parent="1">
          <mxGeometry width="50" height="50" relative="1" as="geometry">
            <mxPoint x="634" y="240" as="sourcePoint" />
            <mxPoint x="869" y="240" as="targetPoint" />
          </mxGeometry>
        </mxCell>
        <mxCell id="Mu3S5q0IJZtE3U1gxK8Q-39" value="" style="endArrow=none;dashed=1;html=1;dashPattern=1 3;strokeWidth=2;rounded=0;" edge="1" parent="1">
          <mxGeometry width="50" height="50" relative="1" as="geometry">
            <mxPoint x="639" y="310" as="sourcePoint" />
            <mxPoint x="869" y="310" as="targetPoint" />
          </mxGeometry>
        </mxCell>
        <mxCell id="Mu3S5q0IJZtE3U1gxK8Q-40" value="" style="endArrow=none;dashed=1;html=1;dashPattern=1 3;strokeWidth=2;rounded=0;" edge="1" parent="1">
          <mxGeometry width="50" height="50" relative="1" as="geometry">
            <mxPoint x="629" y="310" as="sourcePoint" />
            <mxPoint x="629" y="240" as="targetPoint" />
          </mxGeometry>
        </mxCell>
        <mxCell id="Mu3S5q0IJZtE3U1gxK8Q-41" value="" style="endArrow=none;dashed=1;html=1;dashPattern=1 3;strokeWidth=2;rounded=0;" edge="1" parent="1">
          <mxGeometry width="50" height="50" relative="1" as="geometry">
            <mxPoint x="869" y="310" as="sourcePoint" />
            <mxPoint x="869" y="240" as="targetPoint" />
          </mxGeometry>
        </mxCell>
        <mxCell id="Mu3S5q0IJZtE3U1gxK8Q-42" value="IV0" style="ellipse;whiteSpace=wrap;html=1;aspect=fixed;" vertex="1" parent="1">
          <mxGeometry x="527.5" y="260" width="30" height="30" as="geometry" />
        </mxCell>
        <mxCell id="Mu3S5q0IJZtE3U1gxK8Q-43" style="edgeStyle=orthogonalEdgeStyle;rounded=0;orthogonalLoop=1;jettySize=auto;html=1;" edge="1" source="Mu3S5q0IJZtE3U1gxK8Q-44" parent="1">
          <mxGeometry relative="1" as="geometry">
            <mxPoint x="407.5" y="275" as="targetPoint" />
          </mxGeometry>
        </mxCell>
        <mxCell id="Mu3S5q0IJZtE3U1gxK8Q-44" value="IV1" style="ellipse;whiteSpace=wrap;html=1;aspect=fixed;" vertex="1" parent="1">
          <mxGeometry x="347.5" y="260" width="30" height="30" as="geometry" />
        </mxCell>
        <mxCell id="Mu3S5q0IJZtE3U1gxK8Q-45" style="edgeStyle=orthogonalEdgeStyle;rounded=0;orthogonalLoop=1;jettySize=auto;html=1;" edge="1" source="Mu3S5q0IJZtE3U1gxK8Q-46" parent="1">
          <mxGeometry relative="1" as="geometry">
            <mxPoint x="497.5" y="275" as="targetPoint" />
          </mxGeometry>
        </mxCell>
        <mxCell id="Mu3S5q0IJZtE3U1gxK8Q-46" value="IV2" style="ellipse;whiteSpace=wrap;html=1;aspect=fixed;" vertex="1" parent="1">
          <mxGeometry x="437.5" y="260" width="30" height="30" as="geometry" />
        </mxCell>
        <mxCell id="Mu3S5q0IJZtE3U1gxK8Q-47" style="edgeStyle=orthogonalEdgeStyle;rounded=0;orthogonalLoop=1;jettySize=auto;html=1;entryX=0;entryY=0.5;entryDx=0;entryDy=0;" edge="1" parent="1">
          <mxGeometry relative="1" as="geometry">
            <mxPoint x="557.5" y="275" as="sourcePoint" />
            <mxPoint x="642.5" y="275" as="targetPoint" />
          </mxGeometry>
        </mxCell>
        <mxCell id="Mu3S5q0IJZtE3U1gxK8Q-48" style="edgeStyle=orthogonalEdgeStyle;rounded=0;orthogonalLoop=1;jettySize=auto;html=1;" edge="1" source="Mu3S5q0IJZtE3U1gxK8Q-49" parent="1">
          <mxGeometry relative="1" as="geometry">
            <mxPoint x="327.5" y="275" as="targetPoint" />
          </mxGeometry>
        </mxCell>
        <mxCell id="Mu3S5q0IJZtE3U1gxK8Q-49" value="IV3" style="ellipse;whiteSpace=wrap;html=1;aspect=fixed;" vertex="1" parent="1">
          <mxGeometry x="267.5" y="260" width="30" height="30" as="geometry" />
        </mxCell>
        <mxCell id="Mu3S5q0IJZtE3U1gxK8Q-50" value="" style="endArrow=none;dashed=1;html=1;dashPattern=1 3;strokeWidth=2;rounded=0;" edge="1" parent="1">
          <mxGeometry width="50" height="50" relative="1" as="geometry">
            <mxPoint x="627.5" y="310" as="sourcePoint" />
            <mxPoint x="627.5" y="240" as="targetPoint" />
          </mxGeometry>
        </mxCell>
        <mxCell id="Mu3S5q0IJZtE3U1gxK8Q-51" value="" style="endArrow=none;dashed=1;html=1;dashPattern=1 3;strokeWidth=2;rounded=0;" edge="1" parent="1">
          <mxGeometry width="50" height="50" relative="1" as="geometry">
            <mxPoint x="870" y="310" as="sourcePoint" />
            <mxPoint x="870" y="240" as="targetPoint" />
          </mxGeometry>
        </mxCell>
        <mxCell id="Mu3S5q0IJZtE3U1gxK8Q-60" value="PipeLined Output" style="text;html=1;align=center;verticalAlign=middle;resizable=0;points=[];autosize=1;strokeColor=none;fillColor=none;" vertex="1" parent="1">
          <mxGeometry x="753" y="59" width="120" height="30" as="geometry" />
        </mxCell>
        <mxCell id="Mu3S5q0IJZtE3U1gxK8Q-61" value="Localized Input" style="text;html=1;align=center;verticalAlign=middle;resizable=0;points=[];autosize=1;strokeColor=none;fillColor=none;" vertex="1" parent="1">
          <mxGeometry x="642" y="59" width="100" height="30" as="geometry" />
        </mxCell>
        <mxCell id="Mu3S5q0IJZtE3U1gxK8Q-62" value="PipeLined Input" style="text;html=1;align=center;verticalAlign=middle;resizable=0;points=[];autosize=1;strokeColor=none;fillColor=none;" vertex="1" parent="1">
          <mxGeometry x="640" y="200" width="110" height="30" as="geometry" />
        </mxCell>
        <mxCell id="Mu3S5q0IJZtE3U1gxK8Q-63" value="Localized Output" style="text;html=1;align=center;verticalAlign=middle;resizable=0;points=[];autosize=1;strokeColor=none;fillColor=none;" vertex="1" parent="1">
          <mxGeometry x="761" y="200" width="110" height="30" as="geometry" />
        </mxCell>
        <mxCell id="Mu3S5q0IJZtE3U1gxK8Q-80" style="edgeStyle=orthogonalEdgeStyle;rounded=0;orthogonalLoop=1;jettySize=auto;html=1;entryX=0.25;entryY=0;entryDx=0;entryDy=0;" edge="1" parent="1" source="Mu3S5q0IJZtE3U1gxK8Q-65" target="Mu3S5q0IJZtE3U1gxK8Q-79">
          <mxGeometry relative="1" as="geometry" />
        </mxCell>
        <mxCell id="Mu3S5q0IJZtE3U1gxK8Q-65" value="IV0" style="ellipse;whiteSpace=wrap;html=1;aspect=fixed;" vertex="1" parent="1">
          <mxGeometry x="644" y="430" width="30" height="30" as="geometry" />
        </mxCell>
        <mxCell id="Mu3S5q0IJZtE3U1gxK8Q-67" value="IV1" style="ellipse;whiteSpace=wrap;html=1;aspect=fixed;" vertex="1" parent="1">
          <mxGeometry x="704" y="430" width="30" height="30" as="geometry" />
        </mxCell>
        <mxCell id="Mu3S5q0IJZtE3U1gxK8Q-69" value="IV2" style="ellipse;whiteSpace=wrap;html=1;aspect=fixed;" vertex="1" parent="1">
          <mxGeometry x="764" y="430" width="30" height="30" as="geometry" />
        </mxCell>
        <mxCell id="Mu3S5q0IJZtE3U1gxK8Q-83" style="edgeStyle=orthogonalEdgeStyle;rounded=0;orthogonalLoop=1;jettySize=auto;html=1;entryX=0.75;entryY=0;entryDx=0;entryDy=0;" edge="1" parent="1" source="Mu3S5q0IJZtE3U1gxK8Q-70" target="Mu3S5q0IJZtE3U1gxK8Q-79">
          <mxGeometry relative="1" as="geometry" />
        </mxCell>
        <mxCell id="Mu3S5q0IJZtE3U1gxK8Q-70" value="IV3" style="ellipse;whiteSpace=wrap;html=1;aspect=fixed;" vertex="1" parent="1">
          <mxGeometry x="824" y="430" width="30" height="30" as="geometry" />
        </mxCell>
        <mxCell id="Mu3S5q0IJZtE3U1gxK8Q-71" value="" style="endArrow=none;dashed=1;html=1;dashPattern=1 3;strokeWidth=2;rounded=0;" edge="1" parent="1">
          <mxGeometry width="50" height="50" relative="1" as="geometry">
            <mxPoint x="634" y="410" as="sourcePoint" />
            <mxPoint x="869" y="410" as="targetPoint" />
          </mxGeometry>
        </mxCell>
        <mxCell id="Mu3S5q0IJZtE3U1gxK8Q-72" value="" style="endArrow=none;dashed=1;html=1;dashPattern=1 3;strokeWidth=2;rounded=0;" edge="1" parent="1">
          <mxGeometry width="50" height="50" relative="1" as="geometry">
            <mxPoint x="639" y="480" as="sourcePoint" />
            <mxPoint x="869" y="480" as="targetPoint" />
          </mxGeometry>
        </mxCell>
        <mxCell id="Mu3S5q0IJZtE3U1gxK8Q-73" value="" style="endArrow=none;dashed=1;html=1;dashPattern=1 3;strokeWidth=2;rounded=0;" edge="1" parent="1">
          <mxGeometry width="50" height="50" relative="1" as="geometry">
            <mxPoint x="629" y="480" as="sourcePoint" />
            <mxPoint x="629" y="410" as="targetPoint" />
          </mxGeometry>
        </mxCell>
        <mxCell id="Mu3S5q0IJZtE3U1gxK8Q-74" value="" style="endArrow=none;dashed=1;html=1;dashPattern=1 3;strokeWidth=2;rounded=0;" edge="1" parent="1">
          <mxGeometry width="50" height="50" relative="1" as="geometry">
            <mxPoint x="869" y="480" as="sourcePoint" />
            <mxPoint x="869" y="410" as="targetPoint" />
          </mxGeometry>
        </mxCell>
        <mxCell id="Mu3S5q0IJZtE3U1gxK8Q-75" value="Localized Input" style="text;html=1;align=center;verticalAlign=middle;resizable=0;points=[];autosize=1;strokeColor=none;fillColor=none;" vertex="1" parent="1">
          <mxGeometry x="640" y="365" width="100" height="30" as="geometry" />
        </mxCell>
        <mxCell id="Mu3S5q0IJZtE3U1gxK8Q-76" value="BroadCasted Output" style="text;html=1;align=center;verticalAlign=middle;resizable=0;points=[];autosize=1;strokeColor=none;fillColor=none;" vertex="1" parent="1">
          <mxGeometry x="746" y="365" width="130" height="30" as="geometry" />
        </mxCell>
        <mxCell id="Mu3S5q0IJZtE3U1gxK8Q-84" style="edgeStyle=orthogonalEdgeStyle;rounded=0;orthogonalLoop=1;jettySize=auto;html=1;" edge="1" parent="1" source="Mu3S5q0IJZtE3U1gxK8Q-79">
          <mxGeometry relative="1" as="geometry">
            <mxPoint x="749" y="600" as="targetPoint" />
          </mxGeometry>
        </mxCell>
        <mxCell id="Mu3S5q0IJZtE3U1gxK8Q-79" value="ADDER" style="rounded=0;whiteSpace=wrap;html=1;" vertex="1" parent="1">
          <mxGeometry x="654" y="530" width="190" height="40" as="geometry" />
        </mxCell>
        <mxCell id="Mu3S5q0IJZtE3U1gxK8Q-81" style="edgeStyle=orthogonalEdgeStyle;rounded=0;orthogonalLoop=1;jettySize=auto;html=1;entryX=0.386;entryY=0.007;entryDx=0;entryDy=0;entryPerimeter=0;" edge="1" parent="1" source="Mu3S5q0IJZtE3U1gxK8Q-67" target="Mu3S5q0IJZtE3U1gxK8Q-79">
          <mxGeometry relative="1" as="geometry" />
        </mxCell>
        <mxCell id="Mu3S5q0IJZtE3U1gxK8Q-82" style="edgeStyle=orthogonalEdgeStyle;rounded=0;orthogonalLoop=1;jettySize=auto;html=1;entryX=0.593;entryY=0.007;entryDx=0;entryDy=0;entryPerimeter=0;" edge="1" parent="1" source="Mu3S5q0IJZtE3U1gxK8Q-69" target="Mu3S5q0IJZtE3U1gxK8Q-79">
          <mxGeometry relative="1" as="geometry" />
        </mxCell>
        <mxCell id="Mu3S5q0IJZtE3U1gxK8Q-93" style="edgeStyle=orthogonalEdgeStyle;rounded=0;orthogonalLoop=1;jettySize=auto;html=1;entryX=0.5;entryY=0;entryDx=0;entryDy=0;" edge="1" parent="1" source="Mu3S5q0IJZtE3U1gxK8Q-85" target="Mu3S5q0IJZtE3U1gxK8Q-65">
          <mxGeometry relative="1" as="geometry" />
        </mxCell>
        <mxCell id="Mu3S5q0IJZtE3U1gxK8Q-85" value="OV0" style="ellipse;whiteSpace=wrap;html=1;aspect=fixed;" vertex="1" parent="1">
          <mxGeometry x="530" y="390" width="30" height="30" as="geometry" />
        </mxCell>
        <mxCell id="Mu3S5q0IJZtE3U1gxK8Q-86" style="edgeStyle=orthogonalEdgeStyle;rounded=0;orthogonalLoop=1;jettySize=auto;html=1;" edge="1" parent="1" source="Mu3S5q0IJZtE3U1gxK8Q-87">
          <mxGeometry relative="1" as="geometry">
            <mxPoint x="410" y="405" as="targetPoint" />
          </mxGeometry>
        </mxCell>
        <mxCell id="Mu3S5q0IJZtE3U1gxK8Q-87" value="OV1" style="ellipse;whiteSpace=wrap;html=1;aspect=fixed;" vertex="1" parent="1">
          <mxGeometry x="350" y="390" width="30" height="30" as="geometry" />
        </mxCell>
        <mxCell id="Mu3S5q0IJZtE3U1gxK8Q-88" style="edgeStyle=orthogonalEdgeStyle;rounded=0;orthogonalLoop=1;jettySize=auto;html=1;" edge="1" parent="1" source="Mu3S5q0IJZtE3U1gxK8Q-89">
          <mxGeometry relative="1" as="geometry">
            <mxPoint x="500" y="405" as="targetPoint" />
          </mxGeometry>
        </mxCell>
        <mxCell id="Mu3S5q0IJZtE3U1gxK8Q-89" value="OV2" style="ellipse;whiteSpace=wrap;html=1;aspect=fixed;" vertex="1" parent="1">
          <mxGeometry x="440" y="390" width="30" height="30" as="geometry" />
        </mxCell>
        <mxCell id="Mu3S5q0IJZtE3U1gxK8Q-91" style="edgeStyle=orthogonalEdgeStyle;rounded=0;orthogonalLoop=1;jettySize=auto;html=1;" edge="1" parent="1" source="Mu3S5q0IJZtE3U1gxK8Q-92">
          <mxGeometry relative="1" as="geometry">
            <mxPoint x="330" y="405" as="targetPoint" />
          </mxGeometry>
        </mxCell>
        <mxCell id="Mu3S5q0IJZtE3U1gxK8Q-92" value="OV3" style="ellipse;whiteSpace=wrap;html=1;aspect=fixed;" vertex="1" parent="1">
          <mxGeometry x="270" y="390" width="30" height="30" as="geometry" />
        </mxCell>
        <mxCell id="Mu3S5q0IJZtE3U1gxK8Q-97" value="" style="edgeStyle=none;orthogonalLoop=1;jettySize=auto;html=1;rounded=0;entryX=0.5;entryY=0;entryDx=0;entryDy=0;" edge="1" parent="1" target="Mu3S5q0IJZtE3U1gxK8Q-67">
          <mxGeometry width="80" relative="1" as="geometry">
            <mxPoint x="660" y="404.83" as="sourcePoint" />
            <mxPoint x="720" y="405" as="targetPoint" />
            <Array as="points">
              <mxPoint x="719" y="405" />
            </Array>
          </mxGeometry>
        </mxCell>
        <mxCell id="Mu3S5q0IJZtE3U1gxK8Q-98" value="" style="edgeStyle=none;orthogonalLoop=1;jettySize=auto;html=1;rounded=0;entryX=0.5;entryY=0;entryDx=0;entryDy=0;" edge="1" parent="1">
          <mxGeometry width="80" relative="1" as="geometry">
            <mxPoint x="719.5" y="404.83" as="sourcePoint" />
            <mxPoint x="778.5" y="430" as="targetPoint" />
            <Array as="points">
              <mxPoint x="778.5" y="405" />
            </Array>
          </mxGeometry>
        </mxCell>
        <mxCell id="Mu3S5q0IJZtE3U1gxK8Q-99" value="" style="edgeStyle=none;orthogonalLoop=1;jettySize=auto;html=1;rounded=0;entryX=0.5;entryY=0;entryDx=0;entryDy=0;" edge="1" parent="1">
          <mxGeometry width="80" relative="1" as="geometry">
            <mxPoint x="779" y="404.83" as="sourcePoint" />
            <mxPoint x="838" y="430" as="targetPoint" />
            <Array as="points">
              <mxPoint x="838" y="405" />
            </Array>
          </mxGeometry>
        </mxCell>
        <mxCell id="Mu3S5q0IJZtE3U1gxK8Q-100" value="OV0" style="ellipse;whiteSpace=wrap;html=1;aspect=fixed;" vertex="1" parent="1">
          <mxGeometry x="734" y="601" width="30" height="30" as="geometry" />
        </mxCell>
        <mxCell id="Mu3S5q0IJZtE3U1gxK8Q-101" value="OV1" style="ellipse;whiteSpace=wrap;html=1;aspect=fixed;" vertex="1" parent="1">
          <mxGeometry x="734" y="647" width="30" height="30" as="geometry" />
        </mxCell>
        <mxCell id="Mu3S5q0IJZtE3U1gxK8Q-102" value="OV2" style="ellipse;whiteSpace=wrap;html=1;aspect=fixed;" vertex="1" parent="1">
          <mxGeometry x="735" y="693" width="30" height="30" as="geometry" />
        </mxCell>
        <mxCell id="Mu3S5q0IJZtE3U1gxK8Q-104" value="OV0" style="ellipse;whiteSpace=wrap;html=1;aspect=fixed;" vertex="1" parent="1">
          <mxGeometry x="646.5" y="860" width="30" height="30" as="geometry" />
        </mxCell>
        <mxCell id="Mu3S5q0IJZtE3U1gxK8Q-106" value="OV1" style="ellipse;whiteSpace=wrap;html=1;aspect=fixed;" vertex="1" parent="1">
          <mxGeometry x="706.5" y="860" width="30" height="30" as="geometry" />
        </mxCell>
        <mxCell id="Mu3S5q0IJZtE3U1gxK8Q-108" value="OV2" style="ellipse;whiteSpace=wrap;html=1;aspect=fixed;" vertex="1" parent="1">
          <mxGeometry x="766.5" y="860" width="30" height="30" as="geometry" />
        </mxCell>
        <mxCell id="Mu3S5q0IJZtE3U1gxK8Q-109" value="OV3" style="ellipse;whiteSpace=wrap;html=1;aspect=fixed;" vertex="1" parent="1">
          <mxGeometry x="826.5" y="860" width="30" height="30" as="geometry" />
        </mxCell>
        <mxCell id="Mu3S5q0IJZtE3U1gxK8Q-110" value="" style="endArrow=none;dashed=1;html=1;dashPattern=1 3;strokeWidth=2;rounded=0;" edge="1" parent="1">
          <mxGeometry width="50" height="50" relative="1" as="geometry">
            <mxPoint x="636.5" y="840" as="sourcePoint" />
            <mxPoint x="871.5" y="840" as="targetPoint" />
          </mxGeometry>
        </mxCell>
        <mxCell id="Mu3S5q0IJZtE3U1gxK8Q-111" value="" style="endArrow=none;dashed=1;html=1;dashPattern=1 3;strokeWidth=2;rounded=0;" edge="1" parent="1">
          <mxGeometry width="50" height="50" relative="1" as="geometry">
            <mxPoint x="641.5" y="910" as="sourcePoint" />
            <mxPoint x="871.5" y="910" as="targetPoint" />
          </mxGeometry>
        </mxCell>
        <mxCell id="Mu3S5q0IJZtE3U1gxK8Q-112" value="" style="endArrow=none;dashed=1;html=1;dashPattern=1 3;strokeWidth=2;rounded=0;" edge="1" parent="1">
          <mxGeometry width="50" height="50" relative="1" as="geometry">
            <mxPoint x="631.5" y="910" as="sourcePoint" />
            <mxPoint x="631.5" y="840" as="targetPoint" />
          </mxGeometry>
        </mxCell>
        <mxCell id="Mu3S5q0IJZtE3U1gxK8Q-113" value="" style="endArrow=none;dashed=1;html=1;dashPattern=1 3;strokeWidth=2;rounded=0;" edge="1" parent="1">
          <mxGeometry width="50" height="50" relative="1" as="geometry">
            <mxPoint x="871.5" y="910" as="sourcePoint" />
            <mxPoint x="871.5" y="840" as="targetPoint" />
          </mxGeometry>
        </mxCell>
        <mxCell id="Mu3S5q0IJZtE3U1gxK8Q-114" value="" style="endArrow=none;dashed=1;html=1;dashPattern=1 3;strokeWidth=2;rounded=0;" edge="1" parent="1">
          <mxGeometry width="50" height="50" relative="1" as="geometry">
            <mxPoint x="630" y="910" as="sourcePoint" />
            <mxPoint x="630" y="840" as="targetPoint" />
          </mxGeometry>
        </mxCell>
        <mxCell id="Mu3S5q0IJZtE3U1gxK8Q-115" value="" style="endArrow=none;dashed=1;html=1;dashPattern=1 3;strokeWidth=2;rounded=0;" edge="1" parent="1">
          <mxGeometry width="50" height="50" relative="1" as="geometry">
            <mxPoint x="872.5" y="910" as="sourcePoint" />
            <mxPoint x="872.5" y="840" as="targetPoint" />
          </mxGeometry>
        </mxCell>
        <mxCell id="Mu3S5q0IJZtE3U1gxK8Q-116" value="BroadCasted Input" style="text;html=1;align=center;verticalAlign=middle;resizable=0;points=[];autosize=1;strokeColor=none;fillColor=none;" vertex="1" parent="1">
          <mxGeometry x="631.5" y="795" width="119" height="27" as="geometry" />
        </mxCell>
        <mxCell id="Mu3S5q0IJZtE3U1gxK8Q-117" value="Localized Output" style="text;html=1;align=center;verticalAlign=middle;resizable=0;points=[];autosize=1;strokeColor=none;fillColor=none;" vertex="1" parent="1">
          <mxGeometry x="756.5" y="793" width="110" height="30" as="geometry" />
        </mxCell>
        <mxCell id="Mu3S5q0IJZtE3U1gxK8Q-118" value="" style="edgeStyle=none;orthogonalLoop=1;jettySize=auto;html=1;rounded=0;endArrow=none;endFill=0;" edge="1" parent="1">
          <mxGeometry width="80" relative="1" as="geometry">
            <mxPoint x="21" y="753" as="sourcePoint" />
            <mxPoint x="1463" y="753" as="targetPoint" />
            <Array as="points" />
          </mxGeometry>
        </mxCell>
        <mxCell id="Mu3S5q0IJZtE3U1gxK8Q-119" value="" style="edgeStyle=none;orthogonalLoop=1;jettySize=auto;html=1;rounded=0;endArrow=none;endFill=0;" edge="1" parent="1">
          <mxGeometry width="80" relative="1" as="geometry">
            <mxPoint x="33" y="354" as="sourcePoint" />
            <mxPoint x="1439" y="349" as="targetPoint" />
            <Array as="points" />
          </mxGeometry>
        </mxCell>
        <mxCell id="Mu3S5q0IJZtE3U1gxK8Q-121" value="" style="edgeStyle=none;orthogonalLoop=1;jettySize=auto;html=1;rounded=0;endArrow=none;endFill=0;" edge="1" parent="1">
          <mxGeometry width="80" relative="1" as="geometry">
            <mxPoint x="1" y="189" as="sourcePoint" />
            <mxPoint x="1454" y="193" as="targetPoint" />
            <Array as="points" />
          </mxGeometry>
        </mxCell>
        <mxCell id="Mu3S5q0IJZtE3U1gxK8Q-126" style="edgeStyle=orthogonalEdgeStyle;rounded=0;orthogonalLoop=1;jettySize=auto;html=1;entryX=0.5;entryY=0;entryDx=0;entryDy=0;" edge="1" parent="1" source="Mu3S5q0IJZtE3U1gxK8Q-127">
          <mxGeometry relative="1" as="geometry">
            <mxPoint x="661" y="861" as="targetPoint" />
          </mxGeometry>
        </mxCell>
        <mxCell id="Mu3S5q0IJZtE3U1gxK8Q-127" value="IV0" style="ellipse;whiteSpace=wrap;html=1;aspect=fixed;" vertex="1" parent="1">
          <mxGeometry x="532" y="821" width="30" height="30" as="geometry" />
        </mxCell>
        <mxCell id="Mu3S5q0IJZtE3U1gxK8Q-128" style="edgeStyle=orthogonalEdgeStyle;rounded=0;orthogonalLoop=1;jettySize=auto;html=1;" edge="1" parent="1" source="Mu3S5q0IJZtE3U1gxK8Q-129">
          <mxGeometry relative="1" as="geometry">
            <mxPoint x="412" y="836" as="targetPoint" />
          </mxGeometry>
        </mxCell>
        <mxCell id="Mu3S5q0IJZtE3U1gxK8Q-129" value="IV1" style="ellipse;whiteSpace=wrap;html=1;aspect=fixed;" vertex="1" parent="1">
          <mxGeometry x="352" y="821" width="30" height="30" as="geometry" />
        </mxCell>
        <mxCell id="Mu3S5q0IJZtE3U1gxK8Q-130" style="edgeStyle=orthogonalEdgeStyle;rounded=0;orthogonalLoop=1;jettySize=auto;html=1;" edge="1" parent="1" source="Mu3S5q0IJZtE3U1gxK8Q-131">
          <mxGeometry relative="1" as="geometry">
            <mxPoint x="502" y="836" as="targetPoint" />
          </mxGeometry>
        </mxCell>
        <mxCell id="Mu3S5q0IJZtE3U1gxK8Q-131" value="IV2" style="ellipse;whiteSpace=wrap;html=1;aspect=fixed;" vertex="1" parent="1">
          <mxGeometry x="442" y="821" width="30" height="30" as="geometry" />
        </mxCell>
        <mxCell id="Mu3S5q0IJZtE3U1gxK8Q-132" style="edgeStyle=orthogonalEdgeStyle;rounded=0;orthogonalLoop=1;jettySize=auto;html=1;" edge="1" parent="1" source="Mu3S5q0IJZtE3U1gxK8Q-133">
          <mxGeometry relative="1" as="geometry">
            <mxPoint x="332" y="836" as="targetPoint" />
          </mxGeometry>
        </mxCell>
        <mxCell id="Mu3S5q0IJZtE3U1gxK8Q-133" value="IV3" style="ellipse;whiteSpace=wrap;html=1;aspect=fixed;" vertex="1" parent="1">
          <mxGeometry x="272" y="821" width="30" height="30" as="geometry" />
        </mxCell>
        <mxCell id="Mu3S5q0IJZtE3U1gxK8Q-134" value="" style="edgeStyle=none;orthogonalLoop=1;jettySize=auto;html=1;rounded=0;entryX=0.5;entryY=0;entryDx=0;entryDy=0;" edge="1" parent="1">
          <mxGeometry width="80" relative="1" as="geometry">
            <mxPoint x="662" y="835.8299999999999" as="sourcePoint" />
            <mxPoint x="721" y="861" as="targetPoint" />
            <Array as="points">
              <mxPoint x="721" y="836" />
            </Array>
          </mxGeometry>
        </mxCell>
        <mxCell id="Mu3S5q0IJZtE3U1gxK8Q-135" value="" style="edgeStyle=none;orthogonalLoop=1;jettySize=auto;html=1;rounded=0;entryX=0.5;entryY=0;entryDx=0;entryDy=0;" edge="1" parent="1">
          <mxGeometry width="80" relative="1" as="geometry">
            <mxPoint x="721.5" y="835.8299999999999" as="sourcePoint" />
            <mxPoint x="780.5" y="861" as="targetPoint" />
            <Array as="points">
              <mxPoint x="780.5" y="836" />
            </Array>
          </mxGeometry>
        </mxCell>
        <mxCell id="Mu3S5q0IJZtE3U1gxK8Q-136" value="" style="edgeStyle=none;orthogonalLoop=1;jettySize=auto;html=1;rounded=0;entryX=0.5;entryY=0;entryDx=0;entryDy=0;" edge="1" parent="1">
          <mxGeometry width="80" relative="1" as="geometry">
            <mxPoint x="781" y="835.8299999999999" as="sourcePoint" />
            <mxPoint x="840" y="861" as="targetPoint" />
            <Array as="points">
              <mxPoint x="840" y="836" />
            </Array>
          </mxGeometry>
        </mxCell>
        <mxCell id="Mu3S5q0IJZtE3U1gxK8Q-138" value="PE" style="ellipse;whiteSpace=wrap;html=1;aspect=fixed;" vertex="1" parent="1">
          <mxGeometry x="614.5" y="1169.17" width="30" height="30" as="geometry" />
        </mxCell>
        <mxCell id="Mu3S5q0IJZtE3U1gxK8Q-140" value="PE" style="ellipse;whiteSpace=wrap;html=1;aspect=fixed;" vertex="1" parent="1">
          <mxGeometry x="674.5" y="1169.17" width="30" height="30" as="geometry" />
        </mxCell>
        <mxCell id="Mu3S5q0IJZtE3U1gxK8Q-142" value="PE" style="ellipse;whiteSpace=wrap;html=1;aspect=fixed;" vertex="1" parent="1">
          <mxGeometry x="734.5" y="1169.17" width="30" height="30" as="geometry" />
        </mxCell>
        <mxCell id="Mu3S5q0IJZtE3U1gxK8Q-143" value="PE" style="ellipse;whiteSpace=wrap;html=1;aspect=fixed;" vertex="1" parent="1">
          <mxGeometry x="794.5" y="1169.17" width="30" height="30" as="geometry" />
        </mxCell>
        <mxCell id="Mu3S5q0IJZtE3U1gxK8Q-144" value="" style="endArrow=none;dashed=1;html=1;dashPattern=1 3;strokeWidth=2;rounded=0;" edge="1" parent="1">
          <mxGeometry width="50" height="50" relative="1" as="geometry">
            <mxPoint x="604.5" y="1149.17" as="sourcePoint" />
            <mxPoint x="871" y="1149" as="targetPoint" />
          </mxGeometry>
        </mxCell>
        <mxCell id="Mu3S5q0IJZtE3U1gxK8Q-145" value="" style="endArrow=none;dashed=1;html=1;dashPattern=1 3;strokeWidth=2;rounded=0;" edge="1" parent="1">
          <mxGeometry width="50" height="50" relative="1" as="geometry">
            <mxPoint x="594" y="1478" as="sourcePoint" />
            <mxPoint x="879" y="1477" as="targetPoint" />
          </mxGeometry>
        </mxCell>
        <mxCell id="Mu3S5q0IJZtE3U1gxK8Q-148" value="" style="endArrow=none;dashed=1;html=1;dashPattern=1 3;strokeWidth=2;rounded=0;" edge="1" parent="1">
          <mxGeometry width="50" height="50" relative="1" as="geometry">
            <mxPoint x="596" y="1478" as="sourcePoint" />
            <mxPoint x="598" y="1149.17" as="targetPoint" />
          </mxGeometry>
        </mxCell>
        <mxCell id="Mu3S5q0IJZtE3U1gxK8Q-149" value="" style="endArrow=none;dashed=1;html=1;dashPattern=1 3;strokeWidth=2;rounded=0;" edge="1" parent="1">
          <mxGeometry width="50" height="50" relative="1" as="geometry">
            <mxPoint x="874" y="1478" as="sourcePoint" />
            <mxPoint x="872" y="1149" as="targetPoint" />
          </mxGeometry>
        </mxCell>
        <mxCell id="Mu3S5q0IJZtE3U1gxK8Q-150" value="" style="edgeStyle=none;orthogonalLoop=1;jettySize=auto;html=1;rounded=0;entryX=0.5;entryY=0;entryDx=0;entryDy=0;fillColor=#0050ef;strokeColor=#001DBC;" edge="1" parent="1" target="Mu3S5q0IJZtE3U1gxK8Q-140">
          <mxGeometry width="80" relative="1" as="geometry">
            <mxPoint x="525" y="1136" as="sourcePoint" />
            <mxPoint x="689" y="1160.17" as="targetPoint" />
            <Array as="points">
              <mxPoint x="689" y="1135.17" />
            </Array>
          </mxGeometry>
        </mxCell>
        <mxCell id="Mu3S5q0IJZtE3U1gxK8Q-151" value="" style="edgeStyle=none;orthogonalLoop=1;jettySize=auto;html=1;rounded=0;entryX=0.5;entryY=0;entryDx=0;entryDy=0;fillColor=#0050ef;strokeColor=#001DBC;" edge="1" parent="1" target="Mu3S5q0IJZtE3U1gxK8Q-142">
          <mxGeometry width="80" relative="1" as="geometry">
            <mxPoint x="689.5" y="1135" as="sourcePoint" />
            <mxPoint x="748.5" y="1160.17" as="targetPoint" />
            <Array as="points">
              <mxPoint x="748.5" y="1135.17" />
            </Array>
          </mxGeometry>
        </mxCell>
        <mxCell id="Mu3S5q0IJZtE3U1gxK8Q-152" value="" style="edgeStyle=none;orthogonalLoop=1;jettySize=auto;html=1;rounded=0;fillColor=#0050ef;strokeColor=#001DBC;" edge="1" parent="1">
          <mxGeometry width="80" relative="1" as="geometry">
            <mxPoint x="749" y="1135" as="sourcePoint" />
            <mxPoint x="808" y="1169" as="targetPoint" />
            <Array as="points">
              <mxPoint x="808" y="1135.17" />
            </Array>
          </mxGeometry>
        </mxCell>
        <mxCell id="Mu3S5q0IJZtE3U1gxK8Q-153" value="" style="edgeStyle=none;orthogonalLoop=1;jettySize=auto;html=1;rounded=0;endArrow=none;endFill=0;" edge="1" parent="1">
          <mxGeometry width="80" relative="1" as="geometry">
            <mxPoint x="5" y="968" as="sourcePoint" />
            <mxPoint x="1447" y="968" as="targetPoint" />
            <Array as="points" />
          </mxGeometry>
        </mxCell>
        <mxCell id="Mu3S5q0IJZtE3U1gxK8Q-157" value="BroadCasted Input" style="text;html=1;align=center;verticalAlign=middle;resizable=0;points=[];autosize=1;strokeColor=none;fillColor=none;" vertex="1" parent="1">
          <mxGeometry x="599.5" y="1028" width="119" height="27" as="geometry" />
        </mxCell>
        <mxCell id="Mu3S5q0IJZtE3U1gxK8Q-158" value="BoradCasted Output" style="text;html=1;align=center;verticalAlign=middle;resizable=0;points=[];autosize=1;strokeColor=none;fillColor=none;" vertex="1" parent="1">
          <mxGeometry x="715.5" y="1028" width="128" height="27" as="geometry" />
        </mxCell>
        <mxCell id="Mu3S5q0IJZtE3U1gxK8Q-160" value="" style="edgeStyle=none;orthogonalLoop=1;jettySize=auto;html=1;rounded=0;entryX=0.5;entryY=0;entryDx=0;entryDy=0;fillColor=#0050ef;strokeColor=#001DBC;" edge="1" parent="1" target="Mu3S5q0IJZtE3U1gxK8Q-138">
          <mxGeometry width="80" relative="1" as="geometry">
            <mxPoint x="629" y="1136" as="sourcePoint" />
            <mxPoint x="629.44" y="1160" as="targetPoint" />
            <Array as="points" />
          </mxGeometry>
        </mxCell>
        <mxCell id="Mu3S5q0IJZtE3U1gxK8Q-162" value="IV0" style="ellipse;whiteSpace=wrap;html=1;aspect=fixed;" vertex="1" parent="1">
          <mxGeometry x="494" y="1121" width="30" height="30" as="geometry" />
        </mxCell>
        <mxCell id="Mu3S5q0IJZtE3U1gxK8Q-167" style="edgeStyle=orthogonalEdgeStyle;rounded=0;orthogonalLoop=1;jettySize=auto;html=1;entryX=1;entryY=0.5;entryDx=0;entryDy=0;jumpStyle=arc;jumpSize=6;fillColor=#e51400;strokeColor=#B20000;" edge="1" parent="1" source="Mu3S5q0IJZtE3U1gxK8Q-166" target="Mu3S5q0IJZtE3U1gxK8Q-143">
          <mxGeometry relative="1" as="geometry">
            <mxPoint x="850" y="1191" as="targetPoint" />
            <Array as="points">
              <mxPoint x="851" y="1184" />
            </Array>
          </mxGeometry>
        </mxCell>
        <mxCell id="Mu3S5q0IJZtE3U1gxK8Q-166" value="OV3" style="ellipse;whiteSpace=wrap;html=1;aspect=fixed;" vertex="1" parent="1">
          <mxGeometry x="835" y="1068" width="30" height="30" as="geometry" />
        </mxCell>
        <mxCell id="Mu3S5q0IJZtE3U1gxK8Q-168" value="OV2" style="ellipse;whiteSpace=wrap;html=1;aspect=fixed;" vertex="1" parent="1">
          <mxGeometry x="774.5" y="1067" width="30" height="30" as="geometry" />
        </mxCell>
        <mxCell id="Mu3S5q0IJZtE3U1gxK8Q-169" style="edgeStyle=orthogonalEdgeStyle;rounded=0;orthogonalLoop=1;jettySize=auto;html=1;entryX=1;entryY=0.5;entryDx=0;entryDy=0;jumpStyle=arc;jumpSize=6;fillColor=#e51400;strokeColor=#B20000;" edge="1" source="Mu3S5q0IJZtE3U1gxK8Q-168" parent="1">
          <mxGeometry relative="1" as="geometry">
            <mxPoint x="764.5" y="1183" as="targetPoint" />
            <Array as="points">
              <mxPoint x="790.5" y="1183" />
            </Array>
          </mxGeometry>
        </mxCell>
        <mxCell id="Mu3S5q0IJZtE3U1gxK8Q-170" value="OV1" style="ellipse;whiteSpace=wrap;html=1;aspect=fixed;" vertex="1" parent="1">
          <mxGeometry x="713" y="1069" width="30" height="30" as="geometry" />
        </mxCell>
        <mxCell id="Mu3S5q0IJZtE3U1gxK8Q-171" style="edgeStyle=orthogonalEdgeStyle;rounded=0;orthogonalLoop=1;jettySize=auto;html=1;entryX=1;entryY=0.5;entryDx=0;entryDy=0;jumpStyle=arc;jumpSize=6;fillColor=#e51400;strokeColor=#B20000;" edge="1" source="Mu3S5q0IJZtE3U1gxK8Q-170" parent="1">
          <mxGeometry relative="1" as="geometry">
            <mxPoint x="703" y="1185" as="targetPoint" />
            <Array as="points">
              <mxPoint x="729" y="1185" />
            </Array>
          </mxGeometry>
        </mxCell>
        <mxCell id="Mu3S5q0IJZtE3U1gxK8Q-172" value="OV0" style="ellipse;whiteSpace=wrap;html=1;aspect=fixed;" vertex="1" parent="1">
          <mxGeometry x="654.5" y="1068" width="30" height="30" as="geometry" />
        </mxCell>
        <mxCell id="Mu3S5q0IJZtE3U1gxK8Q-173" style="edgeStyle=orthogonalEdgeStyle;rounded=0;orthogonalLoop=1;jettySize=auto;html=1;entryX=1;entryY=0.5;entryDx=0;entryDy=0;jumpStyle=arc;jumpSize=6;fillColor=#e51400;strokeColor=#B20000;" edge="1" source="Mu3S5q0IJZtE3U1gxK8Q-172" parent="1">
          <mxGeometry relative="1" as="geometry">
            <mxPoint x="644.5" y="1184" as="targetPoint" />
            <Array as="points">
              <mxPoint x="670.5" y="1184" />
            </Array>
          </mxGeometry>
        </mxCell>
        <mxCell id="Mu3S5q0IJZtE3U1gxK8Q-174" value="PE" style="ellipse;whiteSpace=wrap;html=1;aspect=fixed;" vertex="1" parent="1">
          <mxGeometry x="616.5" y="1257.17" width="30" height="30" as="geometry" />
        </mxCell>
        <mxCell id="Mu3S5q0IJZtE3U1gxK8Q-175" value="PE" style="ellipse;whiteSpace=wrap;html=1;aspect=fixed;" vertex="1" parent="1">
          <mxGeometry x="676.5" y="1257.17" width="30" height="30" as="geometry" />
        </mxCell>
        <mxCell id="Mu3S5q0IJZtE3U1gxK8Q-176" value="PE" style="ellipse;whiteSpace=wrap;html=1;aspect=fixed;" vertex="1" parent="1">
          <mxGeometry x="736.5" y="1257.17" width="30" height="30" as="geometry" />
        </mxCell>
        <mxCell id="Mu3S5q0IJZtE3U1gxK8Q-177" value="PE" style="ellipse;whiteSpace=wrap;html=1;aspect=fixed;" vertex="1" parent="1">
          <mxGeometry x="796.5" y="1257.17" width="30" height="30" as="geometry" />
        </mxCell>
        <mxCell id="Mu3S5q0IJZtE3U1gxK8Q-178" value="" style="edgeStyle=none;orthogonalLoop=1;jettySize=auto;html=1;rounded=0;entryX=0.5;entryY=0;entryDx=0;entryDy=0;fillColor=#0050ef;strokeColor=#001DBC;" edge="1" target="Mu3S5q0IJZtE3U1gxK8Q-175" parent="1">
          <mxGeometry width="80" relative="1" as="geometry">
            <mxPoint x="527" y="1224" as="sourcePoint" />
            <mxPoint x="691" y="1248.17" as="targetPoint" />
            <Array as="points">
              <mxPoint x="691" y="1223.17" />
            </Array>
          </mxGeometry>
        </mxCell>
        <mxCell id="Mu3S5q0IJZtE3U1gxK8Q-179" value="" style="edgeStyle=none;orthogonalLoop=1;jettySize=auto;html=1;rounded=0;entryX=0.5;entryY=0;entryDx=0;entryDy=0;fillColor=#0050ef;strokeColor=#001DBC;" edge="1" target="Mu3S5q0IJZtE3U1gxK8Q-176" parent="1">
          <mxGeometry width="80" relative="1" as="geometry">
            <mxPoint x="691.5" y="1223" as="sourcePoint" />
            <mxPoint x="750.5" y="1248.17" as="targetPoint" />
            <Array as="points">
              <mxPoint x="750.5" y="1223.17" />
            </Array>
          </mxGeometry>
        </mxCell>
        <mxCell id="Mu3S5q0IJZtE3U1gxK8Q-180" value="" style="edgeStyle=none;orthogonalLoop=1;jettySize=auto;html=1;rounded=0;fillColor=#0050ef;strokeColor=#001DBC;" edge="1" parent="1">
          <mxGeometry width="80" relative="1" as="geometry">
            <mxPoint x="751" y="1223" as="sourcePoint" />
            <mxPoint x="810" y="1257" as="targetPoint" />
            <Array as="points">
              <mxPoint x="810" y="1223.17" />
            </Array>
          </mxGeometry>
        </mxCell>
        <mxCell id="Mu3S5q0IJZtE3U1gxK8Q-181" value="" style="edgeStyle=none;orthogonalLoop=1;jettySize=auto;html=1;rounded=0;entryX=0.5;entryY=0;entryDx=0;entryDy=0;fillColor=#0050ef;strokeColor=#001DBC;" edge="1" target="Mu3S5q0IJZtE3U1gxK8Q-174" parent="1">
          <mxGeometry width="80" relative="1" as="geometry">
            <mxPoint x="631" y="1224" as="sourcePoint" />
            <mxPoint x="631.44" y="1248" as="targetPoint" />
            <Array as="points" />
          </mxGeometry>
        </mxCell>
        <mxCell id="Mu3S5q0IJZtE3U1gxK8Q-182" value="IV1" style="ellipse;whiteSpace=wrap;html=1;aspect=fixed;" vertex="1" parent="1">
          <mxGeometry x="496" y="1209" width="30" height="30" as="geometry" />
        </mxCell>
        <mxCell id="Mu3S5q0IJZtE3U1gxK8Q-183" value="PE" style="ellipse;whiteSpace=wrap;html=1;aspect=fixed;" vertex="1" parent="1">
          <mxGeometry x="616.5" y="1340.17" width="30" height="30" as="geometry" />
        </mxCell>
        <mxCell id="Mu3S5q0IJZtE3U1gxK8Q-184" value="PE" style="ellipse;whiteSpace=wrap;html=1;aspect=fixed;" vertex="1" parent="1">
          <mxGeometry x="676.5" y="1340.17" width="30" height="30" as="geometry" />
        </mxCell>
        <mxCell id="Mu3S5q0IJZtE3U1gxK8Q-185" value="PE" style="ellipse;whiteSpace=wrap;html=1;aspect=fixed;" vertex="1" parent="1">
          <mxGeometry x="736.5" y="1340.17" width="30" height="30" as="geometry" />
        </mxCell>
        <mxCell id="Mu3S5q0IJZtE3U1gxK8Q-186" value="PE" style="ellipse;whiteSpace=wrap;html=1;aspect=fixed;" vertex="1" parent="1">
          <mxGeometry x="796.5" y="1340.17" width="30" height="30" as="geometry" />
        </mxCell>
        <mxCell id="Mu3S5q0IJZtE3U1gxK8Q-187" value="" style="edgeStyle=none;orthogonalLoop=1;jettySize=auto;html=1;rounded=0;entryX=0.5;entryY=0;entryDx=0;entryDy=0;fillColor=#0050ef;strokeColor=#001DBC;" edge="1" target="Mu3S5q0IJZtE3U1gxK8Q-184" parent="1">
          <mxGeometry width="80" relative="1" as="geometry">
            <mxPoint x="527" y="1307" as="sourcePoint" />
            <mxPoint x="691" y="1331.17" as="targetPoint" />
            <Array as="points">
              <mxPoint x="691" y="1306.17" />
            </Array>
          </mxGeometry>
        </mxCell>
        <mxCell id="Mu3S5q0IJZtE3U1gxK8Q-188" value="" style="edgeStyle=none;orthogonalLoop=1;jettySize=auto;html=1;rounded=0;entryX=0.5;entryY=0;entryDx=0;entryDy=0;fillColor=#0050ef;strokeColor=#001DBC;" edge="1" target="Mu3S5q0IJZtE3U1gxK8Q-185" parent="1">
          <mxGeometry width="80" relative="1" as="geometry">
            <mxPoint x="691.5" y="1306" as="sourcePoint" />
            <mxPoint x="750.5" y="1331.17" as="targetPoint" />
            <Array as="points">
              <mxPoint x="750.5" y="1306.17" />
            </Array>
          </mxGeometry>
        </mxCell>
        <mxCell id="Mu3S5q0IJZtE3U1gxK8Q-189" value="" style="edgeStyle=none;orthogonalLoop=1;jettySize=auto;html=1;rounded=0;fillColor=#0050ef;strokeColor=#001DBC;" edge="1" parent="1">
          <mxGeometry width="80" relative="1" as="geometry">
            <mxPoint x="751" y="1306" as="sourcePoint" />
            <mxPoint x="810" y="1340" as="targetPoint" />
            <Array as="points">
              <mxPoint x="810" y="1306.17" />
            </Array>
          </mxGeometry>
        </mxCell>
        <mxCell id="Mu3S5q0IJZtE3U1gxK8Q-190" value="" style="edgeStyle=none;orthogonalLoop=1;jettySize=auto;html=1;rounded=0;entryX=0.5;entryY=0;entryDx=0;entryDy=0;fillColor=#0050ef;strokeColor=#001DBC;" edge="1" target="Mu3S5q0IJZtE3U1gxK8Q-183" parent="1">
          <mxGeometry width="80" relative="1" as="geometry">
            <mxPoint x="631" y="1307" as="sourcePoint" />
            <mxPoint x="631.44" y="1331" as="targetPoint" />
            <Array as="points" />
          </mxGeometry>
        </mxCell>
        <mxCell id="Mu3S5q0IJZtE3U1gxK8Q-191" value="IV2" style="ellipse;whiteSpace=wrap;html=1;aspect=fixed;" vertex="1" parent="1">
          <mxGeometry x="496" y="1292" width="30" height="30" as="geometry" />
        </mxCell>
        <mxCell id="Mu3S5q0IJZtE3U1gxK8Q-192" value="PE" style="ellipse;whiteSpace=wrap;html=1;aspect=fixed;" vertex="1" parent="1">
          <mxGeometry x="615.5" y="1434.17" width="30" height="30" as="geometry" />
        </mxCell>
        <mxCell id="Mu3S5q0IJZtE3U1gxK8Q-193" value="PE" style="ellipse;whiteSpace=wrap;html=1;aspect=fixed;" vertex="1" parent="1">
          <mxGeometry x="675.5" y="1434.17" width="30" height="30" as="geometry" />
        </mxCell>
        <mxCell id="Mu3S5q0IJZtE3U1gxK8Q-194" value="PE" style="ellipse;whiteSpace=wrap;html=1;aspect=fixed;" vertex="1" parent="1">
          <mxGeometry x="735.5" y="1434.17" width="30" height="30" as="geometry" />
        </mxCell>
        <mxCell id="Mu3S5q0IJZtE3U1gxK8Q-195" value="PE" style="ellipse;whiteSpace=wrap;html=1;aspect=fixed;" vertex="1" parent="1">
          <mxGeometry x="795.5" y="1434.17" width="30" height="30" as="geometry" />
        </mxCell>
        <mxCell id="Mu3S5q0IJZtE3U1gxK8Q-196" value="" style="edgeStyle=none;orthogonalLoop=1;jettySize=auto;html=1;rounded=0;entryX=0.5;entryY=0;entryDx=0;entryDy=0;fillColor=#0050ef;strokeColor=#001DBC;" edge="1" target="Mu3S5q0IJZtE3U1gxK8Q-193" parent="1">
          <mxGeometry width="80" relative="1" as="geometry">
            <mxPoint x="526" y="1401" as="sourcePoint" />
            <mxPoint x="690" y="1425.17" as="targetPoint" />
            <Array as="points">
              <mxPoint x="690" y="1400.17" />
            </Array>
          </mxGeometry>
        </mxCell>
        <mxCell id="Mu3S5q0IJZtE3U1gxK8Q-197" value="" style="edgeStyle=none;orthogonalLoop=1;jettySize=auto;html=1;rounded=0;entryX=0.5;entryY=0;entryDx=0;entryDy=0;fillColor=#0050ef;strokeColor=#001DBC;" edge="1" target="Mu3S5q0IJZtE3U1gxK8Q-194" parent="1">
          <mxGeometry width="80" relative="1" as="geometry">
            <mxPoint x="690.5" y="1400" as="sourcePoint" />
            <mxPoint x="749.5" y="1425.17" as="targetPoint" />
            <Array as="points">
              <mxPoint x="749.5" y="1400.17" />
            </Array>
          </mxGeometry>
        </mxCell>
        <mxCell id="Mu3S5q0IJZtE3U1gxK8Q-198" value="" style="edgeStyle=none;orthogonalLoop=1;jettySize=auto;html=1;rounded=0;fillColor=#0050ef;strokeColor=#001DBC;" edge="1" parent="1">
          <mxGeometry width="80" relative="1" as="geometry">
            <mxPoint x="750" y="1400" as="sourcePoint" />
            <mxPoint x="809" y="1434" as="targetPoint" />
            <Array as="points">
              <mxPoint x="809" y="1400.17" />
            </Array>
          </mxGeometry>
        </mxCell>
        <mxCell id="Mu3S5q0IJZtE3U1gxK8Q-199" value="" style="edgeStyle=none;orthogonalLoop=1;jettySize=auto;html=1;rounded=0;entryX=0.5;entryY=0;entryDx=0;entryDy=0;fillColor=#0050ef;strokeColor=#001DBC;" edge="1" target="Mu3S5q0IJZtE3U1gxK8Q-192" parent="1">
          <mxGeometry width="80" relative="1" as="geometry">
            <mxPoint x="630" y="1401" as="sourcePoint" />
            <mxPoint x="630.44" y="1425" as="targetPoint" />
            <Array as="points" />
          </mxGeometry>
        </mxCell>
        <mxCell id="Mu3S5q0IJZtE3U1gxK8Q-200" value="IV3" style="ellipse;whiteSpace=wrap;html=1;aspect=fixed;" vertex="1" parent="1">
          <mxGeometry x="495" y="1386" width="30" height="30" as="geometry" />
        </mxCell>
        <mxCell id="Mu3S5q0IJZtE3U1gxK8Q-201" style="edgeStyle=orthogonalEdgeStyle;rounded=0;orthogonalLoop=1;jettySize=auto;html=1;entryX=1;entryY=0.5;entryDx=0;entryDy=0;jumpStyle=arc;jumpSize=6;fillColor=#e51400;strokeColor=#B20000;" edge="1" parent="1">
          <mxGeometry relative="1" as="geometry">
            <mxPoint x="824" y="1272.04" as="targetPoint" />
            <mxPoint x="851" y="1186.04" as="sourcePoint" />
            <Array as="points">
              <mxPoint x="851" y="1272.04" />
            </Array>
          </mxGeometry>
        </mxCell>
        <mxCell id="Mu3S5q0IJZtE3U1gxK8Q-202" style="edgeStyle=orthogonalEdgeStyle;rounded=0;orthogonalLoop=1;jettySize=auto;html=1;entryX=1;entryY=0.5;entryDx=0;entryDy=0;jumpStyle=arc;jumpSize=6;fillColor=#e51400;strokeColor=#B20000;" edge="1" parent="1">
          <mxGeometry relative="1" as="geometry">
            <mxPoint x="824" y="1355" as="targetPoint" />
            <mxPoint x="851" y="1269" as="sourcePoint" />
            <Array as="points">
              <mxPoint x="851" y="1355" />
            </Array>
          </mxGeometry>
        </mxCell>
        <mxCell id="Mu3S5q0IJZtE3U1gxK8Q-203" style="edgeStyle=orthogonalEdgeStyle;rounded=0;orthogonalLoop=1;jettySize=auto;html=1;entryX=1;entryY=0.5;entryDx=0;entryDy=0;jumpStyle=arc;jumpSize=6;fillColor=#e51400;strokeColor=#B20000;" edge="1" parent="1">
          <mxGeometry relative="1" as="geometry">
            <mxPoint x="825.5" y="1451" as="targetPoint" />
            <mxPoint x="850" y="1355" as="sourcePoint" />
            <Array as="points">
              <mxPoint x="852.5" y="1451" />
            </Array>
          </mxGeometry>
        </mxCell>
        <mxCell id="Mu3S5q0IJZtE3U1gxK8Q-205" style="edgeStyle=orthogonalEdgeStyle;rounded=0;orthogonalLoop=1;jettySize=auto;html=1;entryX=1;entryY=0.5;entryDx=0;entryDy=0;jumpStyle=arc;jumpSize=6;fillColor=#e51400;strokeColor=#B20000;" edge="1" parent="1">
          <mxGeometry relative="1" as="geometry">
            <mxPoint x="763.02" y="1272.03" as="targetPoint" />
            <mxPoint x="788.52" y="1186.03" as="sourcePoint" />
            <Array as="points">
              <mxPoint x="789.02" y="1272.03" />
            </Array>
          </mxGeometry>
        </mxCell>
        <mxCell id="Mu3S5q0IJZtE3U1gxK8Q-206" style="edgeStyle=orthogonalEdgeStyle;rounded=0;orthogonalLoop=1;jettySize=auto;html=1;entryX=1;entryY=0.5;entryDx=0;entryDy=0;jumpStyle=arc;jumpSize=6;fillColor=#e51400;strokeColor=#B20000;" edge="1" parent="1">
          <mxGeometry relative="1" as="geometry">
            <mxPoint x="766.5" y="1355" as="targetPoint" />
            <mxPoint x="788" y="1272" as="sourcePoint" />
            <Array as="points">
              <mxPoint x="792.5" y="1355" />
            </Array>
          </mxGeometry>
        </mxCell>
        <mxCell id="Mu3S5q0IJZtE3U1gxK8Q-207" style="edgeStyle=orthogonalEdgeStyle;rounded=0;orthogonalLoop=1;jettySize=auto;html=1;entryX=1;entryY=0.5;entryDx=0;entryDy=0;jumpStyle=arc;jumpSize=6;fillColor=#e51400;strokeColor=#B20000;" edge="1" parent="1">
          <mxGeometry relative="1" as="geometry">
            <mxPoint x="765.5" y="1451" as="targetPoint" />
            <mxPoint x="791" y="1355" as="sourcePoint" />
            <Array as="points">
              <mxPoint x="791.5" y="1451" />
            </Array>
          </mxGeometry>
        </mxCell>
        <mxCell id="Mu3S5q0IJZtE3U1gxK8Q-208" style="edgeStyle=orthogonalEdgeStyle;rounded=0;orthogonalLoop=1;jettySize=auto;html=1;entryX=1;entryY=0.5;entryDx=0;entryDy=0;jumpStyle=arc;jumpSize=6;fillColor=#e51400;strokeColor=#B20000;" edge="1" parent="1">
          <mxGeometry relative="1" as="geometry">
            <mxPoint x="701.01" y="1272.03" as="targetPoint" />
            <mxPoint x="726.51" y="1186.03" as="sourcePoint" />
            <Array as="points">
              <mxPoint x="727.01" y="1272.03" />
            </Array>
          </mxGeometry>
        </mxCell>
        <mxCell id="Mu3S5q0IJZtE3U1gxK8Q-209" style="edgeStyle=orthogonalEdgeStyle;rounded=0;orthogonalLoop=1;jettySize=auto;html=1;entryX=1;entryY=0.5;entryDx=0;entryDy=0;jumpStyle=arc;jumpSize=6;fillColor=#e51400;strokeColor=#B20000;" edge="1" parent="1">
          <mxGeometry relative="1" as="geometry">
            <mxPoint x="704.49" y="1355" as="targetPoint" />
            <mxPoint x="725.99" y="1272" as="sourcePoint" />
            <Array as="points">
              <mxPoint x="730.49" y="1355" />
            </Array>
          </mxGeometry>
        </mxCell>
        <mxCell id="Mu3S5q0IJZtE3U1gxK8Q-210" style="edgeStyle=orthogonalEdgeStyle;rounded=0;orthogonalLoop=1;jettySize=auto;html=1;entryX=1;entryY=0.5;entryDx=0;entryDy=0;jumpStyle=arc;jumpSize=6;fillColor=#e51400;strokeColor=#B20000;" edge="1" parent="1">
          <mxGeometry relative="1" as="geometry">
            <mxPoint x="703.49" y="1451" as="targetPoint" />
            <mxPoint x="728.99" y="1355" as="sourcePoint" />
            <Array as="points">
              <mxPoint x="729.49" y="1451" />
            </Array>
          </mxGeometry>
        </mxCell>
        <mxCell id="Mu3S5q0IJZtE3U1gxK8Q-211" style="edgeStyle=orthogonalEdgeStyle;rounded=0;orthogonalLoop=1;jettySize=auto;html=1;entryX=1;entryY=0.5;entryDx=0;entryDy=0;jumpStyle=arc;jumpSize=6;fillColor=#e51400;strokeColor=#B20000;" edge="1" parent="1">
          <mxGeometry relative="1" as="geometry">
            <mxPoint x="639.25" y="1270" as="targetPoint" />
            <mxPoint x="664.75" y="1184" as="sourcePoint" />
            <Array as="points">
              <mxPoint x="665.25" y="1270" />
            </Array>
          </mxGeometry>
        </mxCell>
        <mxCell id="Mu3S5q0IJZtE3U1gxK8Q-212" style="edgeStyle=orthogonalEdgeStyle;rounded=0;orthogonalLoop=1;jettySize=auto;html=1;entryX=1;entryY=0.5;entryDx=0;entryDy=0;jumpStyle=arc;jumpSize=6;fillColor=#e51400;strokeColor=#B20000;" edge="1" parent="1">
          <mxGeometry relative="1" as="geometry">
            <mxPoint x="642.73" y="1352.97" as="targetPoint" />
            <mxPoint x="664.23" y="1269.97" as="sourcePoint" />
            <Array as="points">
              <mxPoint x="668.73" y="1352.97" />
            </Array>
          </mxGeometry>
        </mxCell>
        <mxCell id="Mu3S5q0IJZtE3U1gxK8Q-213" style="edgeStyle=orthogonalEdgeStyle;rounded=0;orthogonalLoop=1;jettySize=auto;html=1;entryX=1;entryY=0.5;entryDx=0;entryDy=0;jumpStyle=arc;jumpSize=6;fillColor=#e51400;strokeColor=#B20000;" edge="1" parent="1">
          <mxGeometry relative="1" as="geometry">
            <mxPoint x="641.73" y="1448.97" as="targetPoint" />
            <mxPoint x="667.23" y="1352.97" as="sourcePoint" />
            <Array as="points">
              <mxPoint x="667.73" y="1448.97" />
            </Array>
          </mxGeometry>
        </mxCell>
      </root>
    </mxGraphModel>
  </diagram>
</mxfile>
